<svg width="32" height="32" viewBox="0 0 32 32" fill="none" xmlns="http://www.w3.org/2000/svg">
<g id="At symbol">
<path id="Vector" fill-rule="evenodd" clip-rule="evenodd" d="M21.6574 10.3427C20.5893 9.27527 19.2409 8.53192 17.7681 8.19859C16.2954 7.86526 14.7583 7.95556 13.3347 8.45906C11.9111 8.96255 10.6591 9.85868 9.72333 11.0438C8.7876 12.229 8.20641 13.6548 8.04693 15.1564C7.88746 16.6579 8.15622 18.174 8.82214 19.5293C9.48807 20.8845 10.524 22.0236 11.8101 22.8149C13.0962 23.6062 14.58 24.0173 16.0899 24.0008C17.5998 23.9842 19.0742 23.5406 20.3427 22.7214C20.4895 22.6207 20.655 22.5504 20.8295 22.5148C21.0039 22.4791 21.1837 22.4787 21.3583 22.5136C21.5328 22.5485 21.6987 22.6181 21.8459 22.7181C21.9932 22.8182 22.1189 22.9467 22.2157 23.0961C22.3125 23.2455 22.3784 23.4128 22.4095 23.5881C22.4406 23.7634 22.4363 23.9432 22.3968 24.1168C22.3573 24.2904 22.2834 24.4543 22.1796 24.5989C22.0757 24.7435 21.9439 24.8659 21.792 24.9587C19.801 26.2462 17.4377 26.8336 15.0756 26.6281C12.7134 26.4226 10.4871 25.4359 8.7483 23.824C7.00948 22.212 5.85731 20.0666 5.47381 17.7268C5.09031 15.387 5.49733 12.9861 6.63059 10.9034C7.76384 8.82067 9.55872 7.17493 11.7317 6.22613C13.9046 5.27733 16.3317 5.07957 18.6296 5.66409C20.9275 6.24861 22.9651 7.58208 24.4206 9.45385C25.876 11.3256 26.6664 13.629 26.6667 16C26.6669 16.743 26.4603 17.4713 26.0698 18.1034C25.6794 18.7355 25.1206 19.2464 24.4561 19.5788C23.7917 19.9111 23.0478 20.0519 22.3078 19.9852C21.5678 19.9186 20.8611 19.6471 20.2667 19.2014C19.5069 20.2144 18.4114 20.9241 17.1762 21.2034C15.9411 21.4827 14.6468 21.3133 13.5251 20.7257C12.4033 20.138 11.5273 19.1704 11.0537 17.996C10.5801 16.8215 10.5399 15.5169 10.9402 14.3154C11.3405 13.114 12.1552 12.0943 13.2386 11.4386C14.322 10.7829 15.6033 10.5341 16.8533 10.7367C18.1034 10.9394 19.2405 11.5801 20.0613 12.5445C20.8821 13.5088 21.333 14.7337 21.3334 16C21.3334 16.3537 21.4738 16.6928 21.7239 16.9428C21.9739 17.1929 22.3131 17.3334 22.6667 17.3334C23.0203 17.3334 23.3595 17.1929 23.6095 16.9428C23.8595 16.6928 24 16.3537 24 16C24 13.9507 23.2187 11.9067 21.6574 10.3427ZM18.6667 16C18.6667 15.2928 18.3857 14.6145 17.8856 14.1144C17.3855 13.6143 16.7073 13.3334 16 13.3334C15.2928 13.3334 14.6145 13.6143 14.1144 14.1144C13.6143 14.6145 13.3334 15.2928 13.3334 16C13.3334 16.7073 13.6143 17.3856 14.1144 17.8856C14.6145 18.3857 15.2928 18.6667 16 18.6667C16.7073 18.6667 17.3855 18.3857 17.8856 17.8856C18.3857 17.3856 18.6667 16.7073 18.6667 16Z" fill="#F8C51B"/>
</g>
</svg>
