<svg width="24" height="24" viewBox="0 0 24 24" fill="none" xmlns="http://www.w3.org/2000/svg">
<g id="Fire">
<path id="Vector" fill-rule="evenodd" clip-rule="evenodd" d="M14.395 4.553C14.3316 4.42603 14.2419 4.31401 14.1319 4.22438C14.0219 4.13475 13.8941 4.06956 13.7569 4.03314C13.6198 3.99673 13.4764 3.98992 13.3364 4.01317C13.1965 4.03642 13.063 4.0892 12.945 4.168C12.6 4.398 12.331 4.726 12.123 5.048C11.909 5.378 11.72 5.761 11.553 6.164C11.219 6.968 10.939 7.932 10.713 8.898C10.4397 10.0785 10.235 11.2738 10.1 12.478C9.69314 12.2157 9.36622 11.8466 9.15501 11.411C8.82701 10.731 8.757 9.877 8.757 8.757C8.75696 8.55925 8.69829 8.36595 8.58841 8.20154C8.47852 8.03713 8.32236 7.90899 8.13966 7.83332C7.95696 7.75765 7.75593 7.73785 7.56197 7.77642C7.36802 7.81498 7.18986 7.91019 7.05001 8.05C6.39917 8.69944 5.88303 9.47104 5.53123 10.3205C5.17943 11.17 4.9989 12.0806 5.00001 13C5.00009 14.1511 5.28405 15.2845 5.82674 16.2996C6.36944 17.3148 7.15411 18.1805 8.11125 18.8199C9.0684 19.4594 10.1685 19.853 11.3141 19.9658C12.4596 20.0786 13.6154 19.9071 14.6789 19.4666C15.7423 19.0261 16.6808 18.3301 17.4111 17.4403C18.1413 16.5504 18.6409 15.4943 18.8655 14.3653C19.0901 13.2363 19.0328 12.0693 18.6987 10.9677C18.3645 9.86617 17.7639 8.86401 16.95 8.05C16.358 7.459 15.97 7.065 15.602 6.583C15.239 6.107 14.878 5.52 14.395 4.553ZM14.12 17.12C13.7005 17.539 13.1661 17.8243 12.5846 17.9399C12.003 18.0554 11.4002 17.996 10.8523 17.7691C10.3045 17.5423 9.83612 17.1582 9.50644 16.6653C9.17676 16.1725 9.00053 15.593 9.00001 15C9.00001 15 9.87901 15.5 11.5 15.5C11.5 14.5 12 11.5 12.75 11C13.25 12 13.536 12.293 14.121 12.879C14.4 13.1572 14.6213 13.4878 14.7722 13.8518C14.923 14.2158 15.0005 14.606 15 15C15.0005 15.394 14.923 15.7842 14.7722 16.1482C14.6213 16.5122 14.4 16.8428 14.121 17.121L14.12 17.12Z" fill="#F76659"/>
</g>
</svg>
