<svg width="66" height="13" viewBox="0 0 66 13" fill="none" xmlns="http://www.w3.org/2000/svg">
<g id="Title">
<path id="Vector" d="M62.7081 12.6975C64.4765 12.6975 65.7805 11.8878 65.7805 10.2387V3.58666H64.2592V4.66905H64.174C63.9396 4.19604 63.4496 3.50143 62.2947 3.50143C60.7819 3.50143 59.593 4.68609 59.593 6.83808C59.593 8.97303 60.7819 10.0384 62.2905 10.0384C63.4112 10.0384 63.9353 9.43751 64.174 8.95598H64.2507V10.196C64.2507 11.1335 63.6115 11.5298 62.7336 11.5298C61.8047 11.5298 61.3956 11.0909 61.2081 10.733L59.8189 11.0696C60.1001 11.9602 61.0419 12.6975 62.7081 12.6975ZM62.7209 8.82814C61.7024 8.82814 61.1655 8.03553 61.1655 6.82956C61.1655 5.64064 61.6939 4.76706 62.7209 4.76706C63.7138 4.76706 64.2592 5.5895 64.2592 6.82956C64.2592 8.07814 63.7052 8.82814 62.7209 8.82814Z" fill="#835101"/>
<path id="Vector_2" d="M54.0916 6.29689C54.0916 5.35087 54.6626 4.80541 55.4766 4.80541C56.2734 4.80541 56.7507 5.32956 56.7507 6.20314V10.1321H58.2933V5.9645C58.2976 4.39632 57.4027 3.50143 56.0519 3.50143C55.0717 3.50143 54.3984 3.97018 54.1001 4.69888H54.0234V3.58666H52.549V10.1321H54.0916V6.29689Z" fill="#835101"/>
<path id="Vector_3" d="M49.4201 10.1321H50.9627V3.58666H49.4201V10.1321ZM50.1957 2.65769C50.6857 2.65769 51.0863 2.28269 51.0863 1.82246C51.0863 1.35797 50.6857 0.982971 50.1957 0.982971C49.7013 0.982971 49.3008 1.35797 49.3008 1.82246C49.3008 2.28269 49.7013 2.65769 50.1957 2.65769Z" fill="#835101"/>
<path id="Vector_4" d="M44.6623 10.1321H46.2049V6.28411C46.2049 5.45315 46.8313 4.86508 47.6793 4.86508C47.9393 4.86508 48.2631 4.91195 48.3952 4.95457V3.53553C48.2546 3.50997 48.0117 3.49292 47.8413 3.49292C47.0913 3.49292 46.4648 3.91906 46.2262 4.67758H46.158V3.58667H44.6623V10.1321Z" fill="#835101"/>
<path id="Vector_5" d="M40.2166 10.26C42.1342 10.26 43.353 8.90911 43.353 6.88496C43.353 4.85655 42.1342 3.50143 40.2166 3.50143C38.299 3.50143 37.0803 4.85655 37.0803 6.88496C37.0803 8.90911 38.299 10.26 40.2166 10.26ZM40.2251 9.02416C39.1641 9.02416 38.6442 8.07814 38.6442 6.8807C38.6442 5.68325 39.1641 4.72445 40.2251 4.72445C41.2692 4.72445 41.7891 5.68325 41.7891 6.8807C41.7891 8.07814 41.2692 9.02416 40.2251 9.02416Z" fill="#835101"/>
<path id="Vector_6" d="M36.1417 3.58668H34.8505V2.01849H33.3079V3.58668H32.3789V4.77986H33.3079V8.41906C33.2994 9.6506 34.1942 10.2557 35.3533 10.2216C35.7923 10.2088 36.0948 10.1236 36.261 10.0682L36.0011 8.86224C35.9158 8.88355 35.7411 8.9219 35.5494 8.9219C35.1616 8.9219 34.8505 8.78554 34.8505 8.16338V4.77986H36.1417V3.58668Z" fill="#835101"/>
<path id="Vector_7" d="M28.8026 10.26C30.4474 10.26 31.4957 9.2841 31.6065 7.8949H30.1321C30 8.59803 29.4929 9.00286 28.8153 9.00286C27.8523 9.00286 27.2301 8.19746 27.2301 6.85939C27.2301 5.53837 27.8651 4.74575 28.8153 4.74575C29.5568 4.74575 30.0128 5.22303 30.1321 5.85371H31.6065C31.5 4.43467 30.3921 3.50143 28.794 3.50143C26.8764 3.50143 25.6662 4.88638 25.6662 6.88496C25.6662 8.86649 26.8466 10.26 28.8026 10.26Z" fill="#835101"/>
<path id="Vector_8" d="M20.9403 10.2642C21.9673 10.2642 22.581 9.78268 22.8622 9.23297H22.9134V10.1321H24.3963V5.75143C24.3963 4.02132 22.9858 3.50143 21.7372 3.50143C20.3608 3.50143 19.304 4.11507 18.9631 5.30825L20.4034 5.5128C20.5568 5.06536 20.9915 4.68183 21.7457 4.68183C22.4616 4.68183 22.8537 5.04831 22.8537 5.69178V5.71734C22.8537 6.16053 22.3892 6.18183 21.2344 6.30541C19.9645 6.44178 18.75 6.82104 18.75 8.29547C18.75 9.5824 19.6918 10.2642 20.9403 10.2642ZM21.3409 9.1307C20.6974 9.1307 20.2372 8.83666 20.2372 8.2699C20.2372 7.67757 20.7528 7.43041 21.4432 7.3324C21.848 7.277 22.6577 7.17473 22.858 7.0128V7.78411C22.858 8.5128 22.2699 9.1307 21.3409 9.1307Z" fill="#835101"/>
<path id="Vector_9" d="M18.0714 3.58667H16.712V3.07104C16.712 2.55968 16.9251 2.27417 17.5004 2.27417C17.7433 2.27417 17.9478 2.32957 18.0757 2.36792L18.3867 1.17474C18.1865 1.10655 17.7475 0.995758 17.2149 0.995758C16.0771 0.995758 15.1694 1.64775 15.1694 2.96877V3.58667H14.2021V4.77985H15.1694V10.1321H16.712V4.77985H18.0714V3.58667Z" fill="#835101"/>
<path id="Vector_10" d="M10.5405 10.26C12.0661 10.26 13.1144 9.51422 13.3871 8.37643L11.9467 8.2145C11.7379 8.76848 11.2266 9.05825 10.5618 9.05825C9.56464 9.05825 8.90412 8.402 8.89134 7.28126H13.451V6.80825C13.451 4.51138 12.0703 3.50143 10.4595 3.50143C8.58452 3.50143 7.36151 4.87785 7.36151 6.89774C7.36151 8.95172 8.56748 10.26 10.5405 10.26ZM8.8956 6.24149C8.94248 5.40626 9.56037 4.70314 10.4808 4.70314C11.3672 4.70314 11.9638 5.35087 11.9723 6.24149H8.8956Z" fill="#835101"/>
<path id="Vector_11" d="M0 10.1321H1.58097V6.9361H3.19176L4.90483 10.1321H6.66903L4.78125 6.67189C5.80824 6.25854 6.34943 5.3807 6.34943 4.19604C6.34943 2.52985 5.27557 1.40485 3.27273 1.40485H0V10.1321ZM1.58097 5.6236V2.72587H3.02983C4.21023 2.72587 4.73864 3.26706 4.73864 4.19604C4.73864 5.12502 4.21023 5.6236 3.03835 5.6236H1.58097Z" fill="#835101"/>
</g>
</svg>
